<svg xmlns="http://www.w3.org/2000/svg" viewBox="0 0 300 400" width="300" height="400">
  <defs>
    <linearGradient id="bg" x1="0%" y1="0%" x2="100%" y2="100%">
      <stop offset="0%" stop-color="#0d2137"/>
      <stop offset="100%" stop-color="#0a1929"/>
    </linearGradient>
    <linearGradient id="iconGrad" x1="0%" y1="0%" x2="100%" y2="100%">
      <stop offset="0%" stop-color="#0077b6"/>
      <stop offset="100%" stop-color="#48cae4"/>
    </linearGradient>
  </defs>
  <rect width="300" height="400" fill="url(#bg)"/>
  <g transform="translate(150, 180)">
    <path d="M-40 -20 L-40 20 L-20 20 L-20 0 L-10 0 L-10 20 L10 20 L10 0 L20 0 L20 20 L40 20 L40 -20 L25 -20 L25 -10 L15 -10 L15 -20 L-15 -20 L-15 -10 L-25 -10 L-25 -20 Z" fill="url(#iconGrad)" opacity="0.6"/>
    <circle cx="-25" cy="5" r="6" fill="#48cae4" opacity="0.8"/>
    <circle cx="25" cy="5" r="6" fill="#48cae4" opacity="0.8"/>
  </g>
  <text x="150" y="260" text-anchor="middle" fill="rgba(255,255,255,0.4)" font-family="sans-serif" font-size="14">No Image</text>
</svg>
